<mxfile host="app.diagrams.net" modified="2024-02-29T17:47:58.131Z" agent="Mozilla/5.0 (Windows NT 10.0; Win64; x64) AppleWebKit/537.36 (KHTML, like Gecko) Chrome/121.0.0.0 Safari/537.36" etag="4p47ujq2Y_mUasehZnyi" version="23.1.5" type="github" pages="2">
  <diagram id="C5RBs43oDa-KdzZeNtuy" name="Page-1">
    <mxGraphModel dx="2261" dy="780" grid="1" gridSize="10" guides="1" tooltips="1" connect="1" arrows="1" fold="1" page="1" pageScale="1" pageWidth="827" pageHeight="1169" math="0" shadow="0">
      <root>
        <mxCell id="WIyWlLk6GJQsqaUBKTNV-0" />
        <mxCell id="WIyWlLk6GJQsqaUBKTNV-1" parent="WIyWlLk6GJQsqaUBKTNV-0" />
        <mxCell id="KJ_HPDsQMNC6sKq2eSFU-30" value="" style="rounded=0;html=1;jettySize=auto;orthogonalLoop=1;fontSize=11;endArrow=classic;endFill=1;endSize=8;strokeWidth=1;shadow=0;labelBackgroundColor=none;edgeStyle=orthogonalEdgeStyle;" edge="1" parent="WIyWlLk6GJQsqaUBKTNV-1" source="KJ_HPDsQMNC6sKq2eSFU-31" target="KJ_HPDsQMNC6sKq2eSFU-36">
          <mxGeometry relative="1" as="geometry" />
        </mxCell>
        <mxCell id="KJ_HPDsQMNC6sKq2eSFU-31" value="Duplicate CIF having Entrepreneur Account" style="rounded=1;whiteSpace=wrap;html=1;fontSize=12;glass=0;strokeWidth=1;shadow=0;" vertex="1" parent="WIyWlLk6GJQsqaUBKTNV-1">
          <mxGeometry x="348" y="80" width="120" height="40" as="geometry" />
        </mxCell>
        <mxCell id="KJ_HPDsQMNC6sKq2eSFU-32" value="" style="rounded=0;html=1;jettySize=auto;orthogonalLoop=1;fontSize=11;endArrow=classic;endFill=1;endSize=8;strokeWidth=1;shadow=0;labelBackgroundColor=none;edgeStyle=orthogonalEdgeStyle;exitX=0;exitY=0.5;exitDx=0;exitDy=0;" edge="1" parent="WIyWlLk6GJQsqaUBKTNV-1" source="KJ_HPDsQMNC6sKq2eSFU-36" target="KJ_HPDsQMNC6sKq2eSFU-43">
          <mxGeometry y="20" relative="1" as="geometry">
            <mxPoint as="offset" />
          </mxGeometry>
        </mxCell>
        <mxCell id="KJ_HPDsQMNC6sKq2eSFU-33" value="Yes" style="edgeLabel;html=1;align=center;verticalAlign=middle;resizable=0;points=[];" vertex="1" connectable="0" parent="KJ_HPDsQMNC6sKq2eSFU-32">
          <mxGeometry x="-0.2553" y="-1" relative="1" as="geometry">
            <mxPoint x="12" y="1" as="offset" />
          </mxGeometry>
        </mxCell>
        <mxCell id="KJ_HPDsQMNC6sKq2eSFU-34" value="" style="edgeStyle=orthogonalEdgeStyle;rounded=0;jettySize=auto;orthogonalLoop=1;endArrow=classic;endFill=1;endSize=8;strokeWidth=1;shadow=0;align=center;labelPosition=center;verticalLabelPosition=middle;verticalAlign=middle;" edge="1" parent="WIyWlLk6GJQsqaUBKTNV-1" source="KJ_HPDsQMNC6sKq2eSFU-36" target="KJ_HPDsQMNC6sKq2eSFU-38">
          <mxGeometry x="-0.2013" y="20" relative="1" as="geometry">
            <mxPoint as="offset" />
          </mxGeometry>
        </mxCell>
        <mxCell id="KJ_HPDsQMNC6sKq2eSFU-35" value="No" style="edgeLabel;html=1;align=center;verticalAlign=middle;resizable=0;points=[];" vertex="1" connectable="0" parent="KJ_HPDsQMNC6sKq2eSFU-34">
          <mxGeometry x="-0.2479" relative="1" as="geometry">
            <mxPoint as="offset" />
          </mxGeometry>
        </mxCell>
        <mxCell id="KJ_HPDsQMNC6sKq2eSFU-36" value="Active? &lt;br&gt;(last 1y activity)" style="rhombus;whiteSpace=wrap;html=1;shadow=0;fontFamily=Helvetica;fontSize=12;align=center;strokeWidth=1;spacing=6;spacingTop=-4;" vertex="1" parent="WIyWlLk6GJQsqaUBKTNV-1">
          <mxGeometry x="338" y="173.34000000000003" width="140" height="73.33" as="geometry" />
        </mxCell>
        <mxCell id="KJ_HPDsQMNC6sKq2eSFU-37" value="" style="edgeStyle=orthogonalEdgeStyle;rounded=0;orthogonalLoop=1;jettySize=auto;html=1;" edge="1" parent="WIyWlLk6GJQsqaUBKTNV-1" source="KJ_HPDsQMNC6sKq2eSFU-38" target="KJ_HPDsQMNC6sKq2eSFU-48">
          <mxGeometry relative="1" as="geometry" />
        </mxCell>
        <mxCell id="KJ_HPDsQMNC6sKq2eSFU-38" value="Split accounts by branches" style="rounded=0;whiteSpace=wrap;html=1;fontSize=12;glass=0;strokeWidth=1;shadow=0;" vertex="1" parent="WIyWlLk6GJQsqaUBKTNV-1">
          <mxGeometry x="520" y="260" width="120" height="40" as="geometry" />
        </mxCell>
        <mxCell id="KJ_HPDsQMNC6sKq2eSFU-39" value="" style="rounded=0;html=1;jettySize=auto;orthogonalLoop=1;fontSize=11;endArrow=classic;endFill=1;endSize=8;strokeWidth=1;shadow=0;labelBackgroundColor=none;edgeStyle=orthogonalEdgeStyle;exitX=0;exitY=0.5;exitDx=0;exitDy=0;" edge="1" parent="WIyWlLk6GJQsqaUBKTNV-1" source="KJ_HPDsQMNC6sKq2eSFU-43" target="KJ_HPDsQMNC6sKq2eSFU-44">
          <mxGeometry x="0.3333" y="20" relative="1" as="geometry">
            <mxPoint as="offset" />
          </mxGeometry>
        </mxCell>
        <mxCell id="KJ_HPDsQMNC6sKq2eSFU-40" value="No" style="edgeLabel;html=1;align=center;verticalAlign=middle;resizable=0;points=[];" vertex="1" connectable="0" parent="KJ_HPDsQMNC6sKq2eSFU-39">
          <mxGeometry x="-0.6145" relative="1" as="geometry">
            <mxPoint x="2" as="offset" />
          </mxGeometry>
        </mxCell>
        <mxCell id="KJ_HPDsQMNC6sKq2eSFU-41" value="" style="edgeStyle=orthogonalEdgeStyle;rounded=0;html=1;jettySize=auto;orthogonalLoop=1;fontSize=11;endArrow=classic;endFill=1;endSize=8;strokeWidth=1;shadow=0;labelBackgroundColor=none;exitX=1;exitY=0.5;exitDx=0;exitDy=0;" edge="1" parent="WIyWlLk6GJQsqaUBKTNV-1" source="KJ_HPDsQMNC6sKq2eSFU-43" target="KJ_HPDsQMNC6sKq2eSFU-45">
          <mxGeometry y="10" relative="1" as="geometry">
            <mxPoint as="offset" />
          </mxGeometry>
        </mxCell>
        <mxCell id="KJ_HPDsQMNC6sKq2eSFU-42" value="Yes" style="edgeLabel;html=1;align=center;verticalAlign=middle;resizable=0;points=[];" vertex="1" connectable="0" parent="KJ_HPDsQMNC6sKq2eSFU-41">
          <mxGeometry x="-0.4148" y="2" relative="1" as="geometry">
            <mxPoint x="-10" y="2" as="offset" />
          </mxGeometry>
        </mxCell>
        <mxCell id="KJ_HPDsQMNC6sKq2eSFU-43" value="Main CIF has &lt;br&gt;Entrepreneur account?" style="rhombus;whiteSpace=wrap;html=1;shadow=0;fontFamily=Helvetica;fontSize=12;align=center;strokeWidth=1;spacing=6;spacingTop=-4;" vertex="1" parent="WIyWlLk6GJQsqaUBKTNV-1">
          <mxGeometry x="214" y="270" width="150" height="70" as="geometry" />
        </mxCell>
        <mxCell id="KJ_HPDsQMNC6sKq2eSFU-73" value="" style="edgeStyle=orthogonalEdgeStyle;rounded=0;orthogonalLoop=1;jettySize=auto;html=1;" edge="1" parent="WIyWlLk6GJQsqaUBKTNV-1" source="KJ_HPDsQMNC6sKq2eSFU-44" target="KJ_HPDsQMNC6sKq2eSFU-72">
          <mxGeometry relative="1" as="geometry" />
        </mxCell>
        <mxCell id="KJ_HPDsQMNC6sKq2eSFU-44" value="Check switching Main and to be Closed CIFs" style="rounded=0;whiteSpace=wrap;html=1;fontSize=12;glass=0;strokeWidth=1;shadow=0;" vertex="1" parent="WIyWlLk6GJQsqaUBKTNV-1">
          <mxGeometry x="119" y="350" width="130" height="50" as="geometry" />
        </mxCell>
        <mxCell id="KJ_HPDsQMNC6sKq2eSFU-45" value="Invite to branch" style="rounded=0;whiteSpace=wrap;html=1;fontSize=12;glass=0;strokeWidth=1;shadow=0;" vertex="1" parent="WIyWlLk6GJQsqaUBKTNV-1">
          <mxGeometry x="330.34" y="360" width="132" height="50" as="geometry" />
        </mxCell>
        <mxCell id="KJ_HPDsQMNC6sKq2eSFU-46" value="&lt;h1&gt;Entrepreneur&lt;/h1&gt;&lt;p&gt;Duplicate Entrepreneur CIF resolution&lt;/p&gt;" style="text;html=1;spacing=5;spacingTop=-20;whiteSpace=wrap;overflow=hidden;rounded=0;" vertex="1" parent="WIyWlLk6GJQsqaUBKTNV-1">
          <mxGeometry x="10" y="40" width="190" height="120" as="geometry" />
        </mxCell>
        <mxCell id="KJ_HPDsQMNC6sKq2eSFU-47" value="" style="edgeStyle=orthogonalEdgeStyle;rounded=0;orthogonalLoop=1;jettySize=auto;html=1;" edge="1" parent="WIyWlLk6GJQsqaUBKTNV-1" source="KJ_HPDsQMNC6sKq2eSFU-48" target="KJ_HPDsQMNC6sKq2eSFU-53">
          <mxGeometry relative="1" as="geometry" />
        </mxCell>
        <mxCell id="KJ_HPDsQMNC6sKq2eSFU-48" value="Review aggrements" style="rounded=0;whiteSpace=wrap;html=1;fontSize=12;glass=0;strokeWidth=1;shadow=0;" vertex="1" parent="WIyWlLk6GJQsqaUBKTNV-1">
          <mxGeometry x="520" y="350" width="120" height="40" as="geometry" />
        </mxCell>
        <mxCell id="KJ_HPDsQMNC6sKq2eSFU-49" value="" style="edgeStyle=orthogonalEdgeStyle;rounded=0;orthogonalLoop=1;jettySize=auto;html=1;exitX=0;exitY=0.5;exitDx=0;exitDy=0;" edge="1" parent="WIyWlLk6GJQsqaUBKTNV-1" source="KJ_HPDsQMNC6sKq2eSFU-53" target="KJ_HPDsQMNC6sKq2eSFU-55">
          <mxGeometry relative="1" as="geometry" />
        </mxCell>
        <mxCell id="KJ_HPDsQMNC6sKq2eSFU-50" value="Yes" style="edgeLabel;html=1;align=center;verticalAlign=middle;resizable=0;points=[];" vertex="1" connectable="0" parent="KJ_HPDsQMNC6sKq2eSFU-49">
          <mxGeometry x="-0.2565" y="-1" relative="1" as="geometry">
            <mxPoint as="offset" />
          </mxGeometry>
        </mxCell>
        <mxCell id="KJ_HPDsQMNC6sKq2eSFU-51" value="" style="edgeStyle=orthogonalEdgeStyle;rounded=0;orthogonalLoop=1;jettySize=auto;html=1;entryX=0.5;entryY=0;entryDx=0;entryDy=0;" edge="1" parent="WIyWlLk6GJQsqaUBKTNV-1" source="KJ_HPDsQMNC6sKq2eSFU-53" target="KJ_HPDsQMNC6sKq2eSFU-67">
          <mxGeometry relative="1" as="geometry">
            <mxPoint x="778.9999999999998" y="520" as="targetPoint" />
          </mxGeometry>
        </mxCell>
        <mxCell id="KJ_HPDsQMNC6sKq2eSFU-52" value="No" style="edgeLabel;html=1;align=center;verticalAlign=middle;resizable=0;points=[];" vertex="1" connectable="0" parent="KJ_HPDsQMNC6sKq2eSFU-51">
          <mxGeometry x="-0.1931" y="-2" relative="1" as="geometry">
            <mxPoint x="-12" y="-2" as="offset" />
          </mxGeometry>
        </mxCell>
        <mxCell id="KJ_HPDsQMNC6sKq2eSFU-53" value="&lt;div style=&quot;&quot;&gt;&lt;span style=&quot;background-color: initial;&quot;&gt;Inactivity clause&amp;nbsp;&lt;/span&gt;&lt;/div&gt;&lt;div style=&quot;&quot;&gt;&lt;span style=&quot;background-color: initial;&quot;&gt;exists&amp;nbsp;&lt;/span&gt;&lt;span style=&quot;background-color: initial;&quot;&gt;in aggrement?&lt;/span&gt;&lt;/div&gt;" style="rhombus;whiteSpace=wrap;html=1;shadow=0;fontFamily=Helvetica;fontSize=12;align=center;strokeWidth=1;spacing=6;spacingTop=-4;verticalAlign=middle;horizontal=1;" vertex="1" parent="WIyWlLk6GJQsqaUBKTNV-1">
          <mxGeometry x="498.3399999999999" y="430" width="163.33" height="70" as="geometry" />
        </mxCell>
        <mxCell id="KJ_HPDsQMNC6sKq2eSFU-54" value="" style="edgeStyle=orthogonalEdgeStyle;rounded=0;orthogonalLoop=1;jettySize=auto;html=1;" edge="1" parent="WIyWlLk6GJQsqaUBKTNV-1" source="KJ_HPDsQMNC6sKq2eSFU-55" target="KJ_HPDsQMNC6sKq2eSFU-57">
          <mxGeometry relative="1" as="geometry" />
        </mxCell>
        <mxCell id="KJ_HPDsQMNC6sKq2eSFU-55" value="Inform Customer (via courier delivery - Bildiriş)" style="whiteSpace=wrap;html=1;shadow=0;strokeWidth=1;spacing=6;spacingTop=-4;" vertex="1" parent="WIyWlLk6GJQsqaUBKTNV-1">
          <mxGeometry x="400" y="520" width="120" height="60" as="geometry" />
        </mxCell>
        <mxCell id="KJ_HPDsQMNC6sKq2eSFU-56" value="" style="edgeStyle=orthogonalEdgeStyle;rounded=0;orthogonalLoop=1;jettySize=auto;html=1;" edge="1" parent="WIyWlLk6GJQsqaUBKTNV-1" source="KJ_HPDsQMNC6sKq2eSFU-57" target="KJ_HPDsQMNC6sKq2eSFU-58">
          <mxGeometry relative="1" as="geometry" />
        </mxCell>
        <mxCell id="KJ_HPDsQMNC6sKq2eSFU-57" value="Inform Tax Ministry&lt;br&gt;(Vergiler)" style="whiteSpace=wrap;html=1;shadow=0;strokeWidth=1;spacing=6;spacingTop=-4;" vertex="1" parent="WIyWlLk6GJQsqaUBKTNV-1">
          <mxGeometry x="400" y="620" width="120" height="60" as="geometry" />
        </mxCell>
        <mxCell id="KJ_HPDsQMNC6sKq2eSFU-58" value="Close Account" style="whiteSpace=wrap;html=1;shadow=0;strokeWidth=1;spacing=6;spacingTop=-4;" vertex="1" parent="WIyWlLk6GJQsqaUBKTNV-1">
          <mxGeometry x="400" y="720" width="120.01" height="60" as="geometry" />
        </mxCell>
        <mxCell id="KJ_HPDsQMNC6sKq2eSFU-63" value="" style="rounded=0;html=1;jettySize=auto;orthogonalLoop=1;fontSize=11;endArrow=classic;endFill=1;endSize=8;strokeWidth=1;shadow=0;labelBackgroundColor=none;edgeStyle=orthogonalEdgeStyle;exitX=1;exitY=0.5;exitDx=0;exitDy=0;" edge="1" parent="WIyWlLk6GJQsqaUBKTNV-1" source="KJ_HPDsQMNC6sKq2eSFU-67" target="KJ_HPDsQMNC6sKq2eSFU-68">
          <mxGeometry x="0.3333" y="20" relative="1" as="geometry">
            <mxPoint as="offset" />
          </mxGeometry>
        </mxCell>
        <mxCell id="KJ_HPDsQMNC6sKq2eSFU-64" value="No" style="edgeLabel;html=1;align=center;verticalAlign=middle;resizable=0;points=[];" vertex="1" connectable="0" parent="KJ_HPDsQMNC6sKq2eSFU-63">
          <mxGeometry x="-0.6145" relative="1" as="geometry">
            <mxPoint as="offset" />
          </mxGeometry>
        </mxCell>
        <mxCell id="KJ_HPDsQMNC6sKq2eSFU-65" value="" style="edgeStyle=orthogonalEdgeStyle;rounded=0;html=1;jettySize=auto;orthogonalLoop=1;fontSize=11;endArrow=classic;endFill=1;endSize=8;strokeWidth=1;shadow=0;labelBackgroundColor=none;exitX=0;exitY=0.5;exitDx=0;exitDy=0;" edge="1" parent="WIyWlLk6GJQsqaUBKTNV-1" source="KJ_HPDsQMNC6sKq2eSFU-67" target="KJ_HPDsQMNC6sKq2eSFU-69">
          <mxGeometry y="10" relative="1" as="geometry">
            <mxPoint as="offset" />
          </mxGeometry>
        </mxCell>
        <mxCell id="KJ_HPDsQMNC6sKq2eSFU-66" value="Yes" style="edgeLabel;html=1;align=center;verticalAlign=middle;resizable=0;points=[];" vertex="1" connectable="0" parent="KJ_HPDsQMNC6sKq2eSFU-65">
          <mxGeometry x="-0.4148" y="2" relative="1" as="geometry">
            <mxPoint x="9" y="-2" as="offset" />
          </mxGeometry>
        </mxCell>
        <mxCell id="KJ_HPDsQMNC6sKq2eSFU-67" value="Main CIF has &lt;br&gt;Entrepreneur account?" style="rhombus;whiteSpace=wrap;html=1;shadow=0;fontFamily=Helvetica;fontSize=12;align=center;strokeWidth=1;spacing=6;spacingTop=-4;" vertex="1" parent="WIyWlLk6GJQsqaUBKTNV-1">
          <mxGeometry x="671.17" y="520" width="150" height="60" as="geometry" />
        </mxCell>
        <mxCell id="KJ_HPDsQMNC6sKq2eSFU-68" value="Check switching Main and to be Closed CIFs" style="rounded=0;whiteSpace=wrap;html=1;fontSize=12;glass=0;strokeWidth=1;shadow=0;" vertex="1" parent="WIyWlLk6GJQsqaUBKTNV-1">
          <mxGeometry x="809.66" y="600" width="130" height="60" as="geometry" />
        </mxCell>
        <mxCell id="KJ_HPDsQMNC6sKq2eSFU-69" value="Invite to branch" style="rounded=0;whiteSpace=wrap;html=1;fontSize=12;glass=0;strokeWidth=1;shadow=0;" vertex="1" parent="WIyWlLk6GJQsqaUBKTNV-1">
          <mxGeometry x="570" y="590" width="130" height="60" as="geometry" />
        </mxCell>
        <mxCell id="KJ_HPDsQMNC6sKq2eSFU-75" value="" style="edgeStyle=orthogonalEdgeStyle;rounded=0;orthogonalLoop=1;jettySize=auto;html=1;exitX=0;exitY=0.5;exitDx=0;exitDy=0;" edge="1" parent="WIyWlLk6GJQsqaUBKTNV-1" source="KJ_HPDsQMNC6sKq2eSFU-72" target="KJ_HPDsQMNC6sKq2eSFU-74">
          <mxGeometry relative="1" as="geometry" />
        </mxCell>
        <mxCell id="KJ_HPDsQMNC6sKq2eSFU-76" value="Yes" style="edgeLabel;html=1;align=center;verticalAlign=middle;resizable=0;points=[];" vertex="1" connectable="0" parent="KJ_HPDsQMNC6sKq2eSFU-75">
          <mxGeometry x="-0.5207" y="-2" relative="1" as="geometry">
            <mxPoint as="offset" />
          </mxGeometry>
        </mxCell>
        <mxCell id="KJ_HPDsQMNC6sKq2eSFU-78" value="" style="edgeStyle=orthogonalEdgeStyle;rounded=0;orthogonalLoop=1;jettySize=auto;html=1;exitX=1;exitY=0.5;exitDx=0;exitDy=0;" edge="1" parent="WIyWlLk6GJQsqaUBKTNV-1" source="KJ_HPDsQMNC6sKq2eSFU-72" target="KJ_HPDsQMNC6sKq2eSFU-77">
          <mxGeometry relative="1" as="geometry" />
        </mxCell>
        <mxCell id="KJ_HPDsQMNC6sKq2eSFU-79" value="No" style="edgeLabel;html=1;align=center;verticalAlign=middle;resizable=0;points=[];" vertex="1" connectable="0" parent="KJ_HPDsQMNC6sKq2eSFU-78">
          <mxGeometry x="-0.5208" y="2" relative="1" as="geometry">
            <mxPoint as="offset" />
          </mxGeometry>
        </mxCell>
        <mxCell id="KJ_HPDsQMNC6sKq2eSFU-72" value="Could be Switched?&lt;br&gt;More difficult products to migrate exists?" style="rhombus;whiteSpace=wrap;html=1;" vertex="1" parent="WIyWlLk6GJQsqaUBKTNV-1">
          <mxGeometry x="109" y="430" width="150" height="80" as="geometry" />
        </mxCell>
        <mxCell id="KJ_HPDsQMNC6sKq2eSFU-74" value="Invite to branch" style="whiteSpace=wrap;html=1;" vertex="1" parent="WIyWlLk6GJQsqaUBKTNV-1">
          <mxGeometry x="-10" y="560" width="120" height="60" as="geometry" />
        </mxCell>
        <mxCell id="KJ_HPDsQMNC6sKq2eSFU-77" value="Cover duplicate CIF in other roadmap" style="whiteSpace=wrap;html=1;" vertex="1" parent="WIyWlLk6GJQsqaUBKTNV-1">
          <mxGeometry x="249" y="560" width="120" height="60" as="geometry" />
        </mxCell>
        <mxCell id="KJ_HPDsQMNC6sKq2eSFU-81" value="Data" style="ellipse;whiteSpace=wrap;html=1;fontSize=10;" vertex="1" parent="WIyWlLk6GJQsqaUBKTNV-1">
          <mxGeometry x="630" y="250" width="30.34" height="20" as="geometry" />
        </mxCell>
        <mxCell id="KJ_HPDsQMNC6sKq2eSFU-82" value="Data" style="ellipse;whiteSpace=wrap;html=1;fontSize=10;" vertex="1" parent="WIyWlLk6GJQsqaUBKTNV-1">
          <mxGeometry x="630" y="340" width="30.34" height="20" as="geometry" />
        </mxCell>
        <mxCell id="KJ_HPDsQMNC6sKq2eSFU-83" value="Data" style="ellipse;whiteSpace=wrap;html=1;fontSize=10;" vertex="1" parent="WIyWlLk6GJQsqaUBKTNV-1">
          <mxGeometry x="640.83" y="430" width="30.34" height="20" as="geometry" />
        </mxCell>
        <mxCell id="KJ_HPDsQMNC6sKq2eSFU-84" value="Data" style="ellipse;whiteSpace=wrap;html=1;fontSize=10;" vertex="1" parent="WIyWlLk6GJQsqaUBKTNV-1">
          <mxGeometry x="437.6600000000001" y="173.33999999999997" width="30.34" height="20" as="geometry" />
        </mxCell>
        <mxCell id="KJ_HPDsQMNC6sKq2eSFU-85" value="Data" style="ellipse;whiteSpace=wrap;html=1;fontSize=10;" vertex="1" parent="WIyWlLk6GJQsqaUBKTNV-1">
          <mxGeometry x="779.32" y="520" width="30.34" height="20" as="geometry" />
        </mxCell>
        <mxCell id="KJ_HPDsQMNC6sKq2eSFU-86" value="Data" style="ellipse;whiteSpace=wrap;html=1;fontSize=10;" vertex="1" parent="WIyWlLk6GJQsqaUBKTNV-1">
          <mxGeometry x="316.0000000000001" y="270" width="30.34" height="20" as="geometry" />
        </mxCell>
        <mxCell id="KJ_HPDsQMNC6sKq2eSFU-87" value="Call Center / Branches" style="ellipse;whiteSpace=wrap;html=1;fontSize=10;" vertex="1" parent="WIyWlLk6GJQsqaUBKTNV-1">
          <mxGeometry x="419.83" y="340" width="66" height="30" as="geometry" />
        </mxCell>
        <mxCell id="KJ_HPDsQMNC6sKq2eSFU-100" value="" style="edgeStyle=orthogonalEdgeStyle;rounded=0;orthogonalLoop=1;jettySize=auto;html=1;" edge="1" parent="WIyWlLk6GJQsqaUBKTNV-1" source="KJ_HPDsQMNC6sKq2eSFU-88" target="KJ_HPDsQMNC6sKq2eSFU-45">
          <mxGeometry relative="1" as="geometry" />
        </mxCell>
        <mxCell id="KJ_HPDsQMNC6sKq2eSFU-88" value="Data" style="ellipse;whiteSpace=wrap;html=1;fontSize=10;" vertex="1" parent="WIyWlLk6GJQsqaUBKTNV-1">
          <mxGeometry x="228.6600000000001" y="340" width="30.34" height="20" as="geometry" />
        </mxCell>
        <mxCell id="KJ_HPDsQMNC6sKq2eSFU-89" value="Data" style="ellipse;whiteSpace=wrap;html=1;fontSize=10;" vertex="1" parent="WIyWlLk6GJQsqaUBKTNV-1">
          <mxGeometry x="214.0000000000001" y="430" width="30.34" height="20" as="geometry" />
        </mxCell>
        <mxCell id="KJ_HPDsQMNC6sKq2eSFU-90" value="Data" style="ellipse;whiteSpace=wrap;html=1;fontSize=10;" vertex="1" parent="WIyWlLk6GJQsqaUBKTNV-1">
          <mxGeometry x="348.0000000000001" y="550" width="30.34" height="20" as="geometry" />
        </mxCell>
        <mxCell id="KJ_HPDsQMNC6sKq2eSFU-91" value="Call Center / Branches" style="ellipse;whiteSpace=wrap;html=1;fontSize=10;" vertex="1" parent="WIyWlLk6GJQsqaUBKTNV-1">
          <mxGeometry x="72" y="540" width="66" height="30" as="geometry" />
        </mxCell>
        <mxCell id="KJ_HPDsQMNC6sKq2eSFU-92" value="Data" style="ellipse;whiteSpace=wrap;html=1;fontSize=10;" vertex="1" parent="WIyWlLk6GJQsqaUBKTNV-1">
          <mxGeometry x="920.0000000000001" y="590" width="30.34" height="20" as="geometry" />
        </mxCell>
        <mxCell id="KJ_HPDsQMNC6sKq2eSFU-93" value="" style="endArrow=none;dashed=1;html=1;rounded=0;exitX=1;exitY=0.5;exitDx=0;exitDy=0;" edge="1" parent="WIyWlLk6GJQsqaUBKTNV-1" source="KJ_HPDsQMNC6sKq2eSFU-48" target="KJ_HPDsQMNC6sKq2eSFU-95">
          <mxGeometry width="50" height="50" relative="1" as="geometry">
            <mxPoint x="680" y="500" as="sourcePoint" />
            <mxPoint x="940" y="370" as="targetPoint" />
          </mxGeometry>
        </mxCell>
        <mxCell id="KJ_HPDsQMNC6sKq2eSFU-95" value="1. Filenet&lt;br&gt;&lt;div style=&quot;&quot;&gt;&lt;span style=&quot;background-color: initial;&quot;&gt;2. Branches&lt;/span&gt;&lt;/div&gt;" style="ellipse;shape=cloud;whiteSpace=wrap;html=1;align=left;spacingTop=0;spacing=26;" vertex="1" parent="WIyWlLk6GJQsqaUBKTNV-1">
          <mxGeometry x="940" y="330" width="120" height="80" as="geometry" />
        </mxCell>
        <mxCell id="KJ_HPDsQMNC6sKq2eSFU-96" value="Branch" style="ellipse;whiteSpace=wrap;html=1;fontSize=10;" vertex="1" parent="WIyWlLk6GJQsqaUBKTNV-1">
          <mxGeometry x="500" y="510" width="30.34" height="20" as="geometry" />
        </mxCell>
        <mxCell id="KJ_HPDsQMNC6sKq2eSFU-97" value="Branch" style="ellipse;whiteSpace=wrap;html=1;fontSize=10;" vertex="1" parent="WIyWlLk6GJQsqaUBKTNV-1">
          <mxGeometry x="500" y="610" width="30.34" height="20" as="geometry" />
        </mxCell>
        <mxCell id="KJ_HPDsQMNC6sKq2eSFU-98" value="Data" style="ellipse;whiteSpace=wrap;html=1;fontSize=10;" vertex="1" parent="WIyWlLk6GJQsqaUBKTNV-1">
          <mxGeometry x="500" y="710" width="30.34" height="20" as="geometry" />
        </mxCell>
        <mxCell id="KJ_HPDsQMNC6sKq2eSFU-99" value="Branch" style="ellipse;whiteSpace=wrap;html=1;fontSize=10;" vertex="1" parent="WIyWlLk6GJQsqaUBKTNV-1">
          <mxGeometry x="690" y="580" width="30.34" height="20" as="geometry" />
        </mxCell>
      </root>
    </mxGraphModel>
  </diagram>
  <diagram name="Copy of Page-1" id="8QEN1vGZ-NulJggD_jLL">
    <mxGraphModel dx="2261" dy="780" grid="1" gridSize="10" guides="1" tooltips="1" connect="1" arrows="1" fold="1" page="1" pageScale="1" pageWidth="827" pageHeight="1169" math="0" shadow="0">
      <root>
        <mxCell id="0JsL5X7lTT_Fuk3FTqtr-0" />
        <mxCell id="0JsL5X7lTT_Fuk3FTqtr-1" parent="0JsL5X7lTT_Fuk3FTqtr-0" />
        <mxCell id="0JsL5X7lTT_Fuk3FTqtr-2" value="" style="rounded=0;html=1;jettySize=auto;orthogonalLoop=1;fontSize=11;endArrow=classic;endFill=1;endSize=8;strokeWidth=1;shadow=0;labelBackgroundColor=none;edgeStyle=orthogonalEdgeStyle;" edge="1" parent="0JsL5X7lTT_Fuk3FTqtr-1" source="0JsL5X7lTT_Fuk3FTqtr-3" target="0JsL5X7lTT_Fuk3FTqtr-8">
          <mxGeometry relative="1" as="geometry" />
        </mxCell>
        <mxCell id="0JsL5X7lTT_Fuk3FTqtr-3" value="Duplicate CIF having Entrepreneur Account" style="rounded=1;whiteSpace=wrap;html=1;fontSize=12;glass=0;strokeWidth=1;shadow=0;" vertex="1" parent="0JsL5X7lTT_Fuk3FTqtr-1">
          <mxGeometry x="348" y="80" width="120" height="40" as="geometry" />
        </mxCell>
        <mxCell id="0JsL5X7lTT_Fuk3FTqtr-4" value="" style="rounded=0;html=1;jettySize=auto;orthogonalLoop=1;fontSize=11;endArrow=classic;endFill=1;endSize=8;strokeWidth=1;shadow=0;labelBackgroundColor=none;edgeStyle=orthogonalEdgeStyle;exitX=0;exitY=0.5;exitDx=0;exitDy=0;" edge="1" parent="0JsL5X7lTT_Fuk3FTqtr-1" source="0JsL5X7lTT_Fuk3FTqtr-8" target="0JsL5X7lTT_Fuk3FTqtr-15">
          <mxGeometry y="20" relative="1" as="geometry">
            <mxPoint as="offset" />
          </mxGeometry>
        </mxCell>
        <mxCell id="0JsL5X7lTT_Fuk3FTqtr-5" value="Yes" style="edgeLabel;html=1;align=center;verticalAlign=middle;resizable=0;points=[];" vertex="1" connectable="0" parent="0JsL5X7lTT_Fuk3FTqtr-4">
          <mxGeometry x="-0.2553" y="-1" relative="1" as="geometry">
            <mxPoint x="12" y="1" as="offset" />
          </mxGeometry>
        </mxCell>
        <mxCell id="0JsL5X7lTT_Fuk3FTqtr-6" value="" style="edgeStyle=orthogonalEdgeStyle;rounded=0;jettySize=auto;orthogonalLoop=1;endArrow=classic;endFill=1;endSize=8;strokeWidth=1;shadow=0;align=center;labelPosition=center;verticalLabelPosition=middle;verticalAlign=middle;" edge="1" parent="0JsL5X7lTT_Fuk3FTqtr-1" source="0JsL5X7lTT_Fuk3FTqtr-8" target="0JsL5X7lTT_Fuk3FTqtr-10">
          <mxGeometry x="-0.2013" y="20" relative="1" as="geometry">
            <mxPoint as="offset" />
          </mxGeometry>
        </mxCell>
        <mxCell id="0JsL5X7lTT_Fuk3FTqtr-7" value="No" style="edgeLabel;html=1;align=center;verticalAlign=middle;resizable=0;points=[];" vertex="1" connectable="0" parent="0JsL5X7lTT_Fuk3FTqtr-6">
          <mxGeometry x="-0.2479" relative="1" as="geometry">
            <mxPoint as="offset" />
          </mxGeometry>
        </mxCell>
        <mxCell id="0JsL5X7lTT_Fuk3FTqtr-8" value="Active? &lt;br&gt;(last 1y activity)" style="rhombus;whiteSpace=wrap;html=1;shadow=0;fontFamily=Helvetica;fontSize=12;align=center;strokeWidth=1;spacing=6;spacingTop=-4;" vertex="1" parent="0JsL5X7lTT_Fuk3FTqtr-1">
          <mxGeometry x="338" y="173.34000000000003" width="140" height="73.33" as="geometry" />
        </mxCell>
        <mxCell id="0JsL5X7lTT_Fuk3FTqtr-9" value="" style="edgeStyle=orthogonalEdgeStyle;rounded=0;orthogonalLoop=1;jettySize=auto;html=1;" edge="1" parent="0JsL5X7lTT_Fuk3FTqtr-1" source="0JsL5X7lTT_Fuk3FTqtr-10" target="0JsL5X7lTT_Fuk3FTqtr-21">
          <mxGeometry relative="1" as="geometry" />
        </mxCell>
        <mxCell id="0JsL5X7lTT_Fuk3FTqtr-10" value="Split accounts by branches" style="rounded=0;whiteSpace=wrap;html=1;fontSize=12;glass=0;strokeWidth=1;shadow=0;" vertex="1" parent="0JsL5X7lTT_Fuk3FTqtr-1">
          <mxGeometry x="520" y="260" width="120" height="40" as="geometry" />
        </mxCell>
        <mxCell id="0JsL5X7lTT_Fuk3FTqtr-11" value="" style="rounded=0;html=1;jettySize=auto;orthogonalLoop=1;fontSize=11;endArrow=classic;endFill=1;endSize=8;strokeWidth=1;shadow=0;labelBackgroundColor=none;edgeStyle=orthogonalEdgeStyle;exitX=0;exitY=0.5;exitDx=0;exitDy=0;" edge="1" parent="0JsL5X7lTT_Fuk3FTqtr-1" source="0JsL5X7lTT_Fuk3FTqtr-15" target="0JsL5X7lTT_Fuk3FTqtr-17">
          <mxGeometry x="0.3333" y="20" relative="1" as="geometry">
            <mxPoint as="offset" />
          </mxGeometry>
        </mxCell>
        <mxCell id="0JsL5X7lTT_Fuk3FTqtr-12" value="No" style="edgeLabel;html=1;align=center;verticalAlign=middle;resizable=0;points=[];" vertex="1" connectable="0" parent="0JsL5X7lTT_Fuk3FTqtr-11">
          <mxGeometry x="-0.6145" relative="1" as="geometry">
            <mxPoint x="2" as="offset" />
          </mxGeometry>
        </mxCell>
        <mxCell id="0JsL5X7lTT_Fuk3FTqtr-13" value="" style="edgeStyle=orthogonalEdgeStyle;rounded=0;html=1;jettySize=auto;orthogonalLoop=1;fontSize=11;endArrow=classic;endFill=1;endSize=8;strokeWidth=1;shadow=0;labelBackgroundColor=none;exitX=1;exitY=0.5;exitDx=0;exitDy=0;" edge="1" parent="0JsL5X7lTT_Fuk3FTqtr-1" source="0JsL5X7lTT_Fuk3FTqtr-15" target="0JsL5X7lTT_Fuk3FTqtr-18">
          <mxGeometry y="10" relative="1" as="geometry">
            <mxPoint as="offset" />
          </mxGeometry>
        </mxCell>
        <mxCell id="0JsL5X7lTT_Fuk3FTqtr-14" value="Yes" style="edgeLabel;html=1;align=center;verticalAlign=middle;resizable=0;points=[];" vertex="1" connectable="0" parent="0JsL5X7lTT_Fuk3FTqtr-13">
          <mxGeometry x="-0.4148" y="2" relative="1" as="geometry">
            <mxPoint x="-10" y="2" as="offset" />
          </mxGeometry>
        </mxCell>
        <mxCell id="0JsL5X7lTT_Fuk3FTqtr-15" value="Main CIF has &lt;br&gt;Entrepreneur account?" style="rhombus;whiteSpace=wrap;html=1;shadow=0;fontFamily=Helvetica;fontSize=12;align=center;strokeWidth=1;spacing=6;spacingTop=-4;" vertex="1" parent="0JsL5X7lTT_Fuk3FTqtr-1">
          <mxGeometry x="214" y="270" width="150" height="70" as="geometry" />
        </mxCell>
        <mxCell id="0JsL5X7lTT_Fuk3FTqtr-16" value="" style="edgeStyle=orthogonalEdgeStyle;rounded=0;orthogonalLoop=1;jettySize=auto;html=1;" edge="1" parent="0JsL5X7lTT_Fuk3FTqtr-1" source="0JsL5X7lTT_Fuk3FTqtr-17" target="0JsL5X7lTT_Fuk3FTqtr-43">
          <mxGeometry relative="1" as="geometry" />
        </mxCell>
        <mxCell id="0JsL5X7lTT_Fuk3FTqtr-17" value="Check switching Main and to be Closed CIFs" style="rounded=0;whiteSpace=wrap;html=1;fontSize=12;glass=0;strokeWidth=1;shadow=0;" vertex="1" parent="0JsL5X7lTT_Fuk3FTqtr-1">
          <mxGeometry x="119" y="350" width="130" height="50" as="geometry" />
        </mxCell>
        <mxCell id="0JsL5X7lTT_Fuk3FTqtr-18" value="Invite to branch" style="rounded=0;whiteSpace=wrap;html=1;fontSize=12;glass=0;strokeWidth=1;shadow=0;" vertex="1" parent="0JsL5X7lTT_Fuk3FTqtr-1">
          <mxGeometry x="330.34" y="360" width="132" height="50" as="geometry" />
        </mxCell>
        <mxCell id="0JsL5X7lTT_Fuk3FTqtr-20" value="" style="edgeStyle=orthogonalEdgeStyle;rounded=0;orthogonalLoop=1;jettySize=auto;html=1;" edge="1" parent="0JsL5X7lTT_Fuk3FTqtr-1" source="0JsL5X7lTT_Fuk3FTqtr-21" target="0JsL5X7lTT_Fuk3FTqtr-26">
          <mxGeometry relative="1" as="geometry" />
        </mxCell>
        <mxCell id="0JsL5X7lTT_Fuk3FTqtr-21" value="Review aggrements" style="rounded=0;whiteSpace=wrap;html=1;fontSize=12;glass=0;strokeWidth=1;shadow=0;" vertex="1" parent="0JsL5X7lTT_Fuk3FTqtr-1">
          <mxGeometry x="520" y="350" width="120" height="40" as="geometry" />
        </mxCell>
        <mxCell id="0JsL5X7lTT_Fuk3FTqtr-22" value="" style="edgeStyle=orthogonalEdgeStyle;rounded=0;orthogonalLoop=1;jettySize=auto;html=1;exitX=0;exitY=0.5;exitDx=0;exitDy=0;" edge="1" parent="0JsL5X7lTT_Fuk3FTqtr-1" source="0JsL5X7lTT_Fuk3FTqtr-26" target="0JsL5X7lTT_Fuk3FTqtr-28">
          <mxGeometry relative="1" as="geometry" />
        </mxCell>
        <mxCell id="0JsL5X7lTT_Fuk3FTqtr-23" value="Yes" style="edgeLabel;html=1;align=center;verticalAlign=middle;resizable=0;points=[];" vertex="1" connectable="0" parent="0JsL5X7lTT_Fuk3FTqtr-22">
          <mxGeometry x="-0.2565" y="-1" relative="1" as="geometry">
            <mxPoint as="offset" />
          </mxGeometry>
        </mxCell>
        <mxCell id="0JsL5X7lTT_Fuk3FTqtr-24" value="" style="edgeStyle=orthogonalEdgeStyle;rounded=0;orthogonalLoop=1;jettySize=auto;html=1;entryX=0.5;entryY=0;entryDx=0;entryDy=0;" edge="1" parent="0JsL5X7lTT_Fuk3FTqtr-1" source="0JsL5X7lTT_Fuk3FTqtr-26" target="0JsL5X7lTT_Fuk3FTqtr-36">
          <mxGeometry relative="1" as="geometry">
            <mxPoint x="778.9999999999998" y="520" as="targetPoint" />
          </mxGeometry>
        </mxCell>
        <mxCell id="0JsL5X7lTT_Fuk3FTqtr-25" value="No" style="edgeLabel;html=1;align=center;verticalAlign=middle;resizable=0;points=[];" vertex="1" connectable="0" parent="0JsL5X7lTT_Fuk3FTqtr-24">
          <mxGeometry x="-0.1931" y="-2" relative="1" as="geometry">
            <mxPoint x="-12" y="-2" as="offset" />
          </mxGeometry>
        </mxCell>
        <mxCell id="0JsL5X7lTT_Fuk3FTqtr-26" value="&lt;div style=&quot;&quot;&gt;&lt;span style=&quot;background-color: initial;&quot;&gt;Inactivity clause&amp;nbsp;&lt;/span&gt;&lt;/div&gt;&lt;div style=&quot;&quot;&gt;&lt;span style=&quot;background-color: initial;&quot;&gt;exists&amp;nbsp;&lt;/span&gt;&lt;span style=&quot;background-color: initial;&quot;&gt;in aggrement?&lt;/span&gt;&lt;/div&gt;" style="rhombus;whiteSpace=wrap;html=1;shadow=0;fontFamily=Helvetica;fontSize=12;align=center;strokeWidth=1;spacing=6;spacingTop=-4;verticalAlign=middle;horizontal=1;" vertex="1" parent="0JsL5X7lTT_Fuk3FTqtr-1">
          <mxGeometry x="498.3399999999999" y="430" width="163.33" height="70" as="geometry" />
        </mxCell>
        <mxCell id="0JsL5X7lTT_Fuk3FTqtr-27" value="" style="edgeStyle=orthogonalEdgeStyle;rounded=0;orthogonalLoop=1;jettySize=auto;html=1;" edge="1" parent="0JsL5X7lTT_Fuk3FTqtr-1" source="0JsL5X7lTT_Fuk3FTqtr-28" target="0JsL5X7lTT_Fuk3FTqtr-30">
          <mxGeometry relative="1" as="geometry" />
        </mxCell>
        <mxCell id="0JsL5X7lTT_Fuk3FTqtr-28" value="Inform Customer (via courier delivery - Bildiriş)" style="whiteSpace=wrap;html=1;shadow=0;strokeWidth=1;spacing=6;spacingTop=-4;" vertex="1" parent="0JsL5X7lTT_Fuk3FTqtr-1">
          <mxGeometry x="400" y="520" width="120" height="60" as="geometry" />
        </mxCell>
        <mxCell id="0JsL5X7lTT_Fuk3FTqtr-29" value="" style="edgeStyle=orthogonalEdgeStyle;rounded=0;orthogonalLoop=1;jettySize=auto;html=1;" edge="1" parent="0JsL5X7lTT_Fuk3FTqtr-1" source="0JsL5X7lTT_Fuk3FTqtr-30" target="0JsL5X7lTT_Fuk3FTqtr-31">
          <mxGeometry relative="1" as="geometry" />
        </mxCell>
        <mxCell id="0JsL5X7lTT_Fuk3FTqtr-30" value="Inform Tax Ministry&lt;br&gt;(Vergiler)" style="whiteSpace=wrap;html=1;shadow=0;strokeWidth=1;spacing=6;spacingTop=-4;" vertex="1" parent="0JsL5X7lTT_Fuk3FTqtr-1">
          <mxGeometry x="400" y="620" width="120" height="60" as="geometry" />
        </mxCell>
        <mxCell id="0JsL5X7lTT_Fuk3FTqtr-31" value="Close Account" style="whiteSpace=wrap;html=1;shadow=0;strokeWidth=1;spacing=6;spacingTop=-4;" vertex="1" parent="0JsL5X7lTT_Fuk3FTqtr-1">
          <mxGeometry x="400" y="720" width="120.01" height="60" as="geometry" />
        </mxCell>
        <mxCell id="0JsL5X7lTT_Fuk3FTqtr-32" value="" style="rounded=0;html=1;jettySize=auto;orthogonalLoop=1;fontSize=11;endArrow=classic;endFill=1;endSize=8;strokeWidth=1;shadow=0;labelBackgroundColor=none;edgeStyle=orthogonalEdgeStyle;exitX=1;exitY=0.5;exitDx=0;exitDy=0;" edge="1" parent="0JsL5X7lTT_Fuk3FTqtr-1" source="0JsL5X7lTT_Fuk3FTqtr-36" target="0JsL5X7lTT_Fuk3FTqtr-37">
          <mxGeometry x="0.3333" y="20" relative="1" as="geometry">
            <mxPoint as="offset" />
          </mxGeometry>
        </mxCell>
        <mxCell id="0JsL5X7lTT_Fuk3FTqtr-33" value="No" style="edgeLabel;html=1;align=center;verticalAlign=middle;resizable=0;points=[];" vertex="1" connectable="0" parent="0JsL5X7lTT_Fuk3FTqtr-32">
          <mxGeometry x="-0.6145" relative="1" as="geometry">
            <mxPoint as="offset" />
          </mxGeometry>
        </mxCell>
        <mxCell id="0JsL5X7lTT_Fuk3FTqtr-34" value="" style="edgeStyle=orthogonalEdgeStyle;rounded=0;html=1;jettySize=auto;orthogonalLoop=1;fontSize=11;endArrow=classic;endFill=1;endSize=8;strokeWidth=1;shadow=0;labelBackgroundColor=none;exitX=0;exitY=0.5;exitDx=0;exitDy=0;" edge="1" parent="0JsL5X7lTT_Fuk3FTqtr-1" source="0JsL5X7lTT_Fuk3FTqtr-36" target="0JsL5X7lTT_Fuk3FTqtr-38">
          <mxGeometry y="10" relative="1" as="geometry">
            <mxPoint as="offset" />
          </mxGeometry>
        </mxCell>
        <mxCell id="0JsL5X7lTT_Fuk3FTqtr-35" value="Yes" style="edgeLabel;html=1;align=center;verticalAlign=middle;resizable=0;points=[];" vertex="1" connectable="0" parent="0JsL5X7lTT_Fuk3FTqtr-34">
          <mxGeometry x="-0.4148" y="2" relative="1" as="geometry">
            <mxPoint x="9" y="-2" as="offset" />
          </mxGeometry>
        </mxCell>
        <mxCell id="0JsL5X7lTT_Fuk3FTqtr-36" value="Main CIF has &lt;br&gt;Entrepreneur account?" style="rhombus;whiteSpace=wrap;html=1;shadow=0;fontFamily=Helvetica;fontSize=12;align=center;strokeWidth=1;spacing=6;spacingTop=-4;" vertex="1" parent="0JsL5X7lTT_Fuk3FTqtr-1">
          <mxGeometry x="671.17" y="520" width="150" height="60" as="geometry" />
        </mxCell>
        <mxCell id="0JsL5X7lTT_Fuk3FTqtr-37" value="Check switching Main and to be Closed CIFs" style="rounded=0;whiteSpace=wrap;html=1;fontSize=12;glass=0;strokeWidth=1;shadow=0;" vertex="1" parent="0JsL5X7lTT_Fuk3FTqtr-1">
          <mxGeometry x="809.66" y="600" width="130" height="60" as="geometry" />
        </mxCell>
        <mxCell id="0JsL5X7lTT_Fuk3FTqtr-38" value="Invite to branch" style="rounded=0;whiteSpace=wrap;html=1;fontSize=12;glass=0;strokeWidth=1;shadow=0;" vertex="1" parent="0JsL5X7lTT_Fuk3FTqtr-1">
          <mxGeometry x="570" y="590" width="130" height="60" as="geometry" />
        </mxCell>
        <mxCell id="0JsL5X7lTT_Fuk3FTqtr-39" value="" style="edgeStyle=orthogonalEdgeStyle;rounded=0;orthogonalLoop=1;jettySize=auto;html=1;exitX=0;exitY=0.5;exitDx=0;exitDy=0;" edge="1" parent="0JsL5X7lTT_Fuk3FTqtr-1" source="0JsL5X7lTT_Fuk3FTqtr-43" target="0JsL5X7lTT_Fuk3FTqtr-44">
          <mxGeometry relative="1" as="geometry" />
        </mxCell>
        <mxCell id="0JsL5X7lTT_Fuk3FTqtr-40" value="Yes" style="edgeLabel;html=1;align=center;verticalAlign=middle;resizable=0;points=[];" vertex="1" connectable="0" parent="0JsL5X7lTT_Fuk3FTqtr-39">
          <mxGeometry x="-0.5207" y="-2" relative="1" as="geometry">
            <mxPoint as="offset" />
          </mxGeometry>
        </mxCell>
        <mxCell id="0JsL5X7lTT_Fuk3FTqtr-41" value="" style="edgeStyle=orthogonalEdgeStyle;rounded=0;orthogonalLoop=1;jettySize=auto;html=1;exitX=1;exitY=0.5;exitDx=0;exitDy=0;" edge="1" parent="0JsL5X7lTT_Fuk3FTqtr-1" source="0JsL5X7lTT_Fuk3FTqtr-43" target="0JsL5X7lTT_Fuk3FTqtr-45">
          <mxGeometry relative="1" as="geometry" />
        </mxCell>
        <mxCell id="0JsL5X7lTT_Fuk3FTqtr-42" value="No" style="edgeLabel;html=1;align=center;verticalAlign=middle;resizable=0;points=[];" vertex="1" connectable="0" parent="0JsL5X7lTT_Fuk3FTqtr-41">
          <mxGeometry x="-0.5208" y="2" relative="1" as="geometry">
            <mxPoint as="offset" />
          </mxGeometry>
        </mxCell>
        <mxCell id="0JsL5X7lTT_Fuk3FTqtr-43" value="Could be Switched?&lt;br&gt;More difficult products to migrate exists?" style="rhombus;whiteSpace=wrap;html=1;" vertex="1" parent="0JsL5X7lTT_Fuk3FTqtr-1">
          <mxGeometry x="109" y="430" width="150" height="80" as="geometry" />
        </mxCell>
        <mxCell id="0JsL5X7lTT_Fuk3FTqtr-44" value="Invite to branch" style="whiteSpace=wrap;html=1;" vertex="1" parent="0JsL5X7lTT_Fuk3FTqtr-1">
          <mxGeometry x="-10" y="560" width="120" height="60" as="geometry" />
        </mxCell>
        <mxCell id="0JsL5X7lTT_Fuk3FTqtr-45" value="Cover duplicate CIF in other roadmap" style="whiteSpace=wrap;html=1;" vertex="1" parent="0JsL5X7lTT_Fuk3FTqtr-1">
          <mxGeometry x="249" y="560" width="120" height="60" as="geometry" />
        </mxCell>
        <mxCell id="0JsL5X7lTT_Fuk3FTqtr-46" value="Data" style="ellipse;whiteSpace=wrap;html=1;fontSize=10;" vertex="1" parent="0JsL5X7lTT_Fuk3FTqtr-1">
          <mxGeometry x="630" y="250" width="30.34" height="20" as="geometry" />
        </mxCell>
        <mxCell id="0JsL5X7lTT_Fuk3FTqtr-47" value="Data" style="ellipse;whiteSpace=wrap;html=1;fontSize=10;" vertex="1" parent="0JsL5X7lTT_Fuk3FTqtr-1">
          <mxGeometry x="630" y="340" width="30.34" height="20" as="geometry" />
        </mxCell>
        <mxCell id="0JsL5X7lTT_Fuk3FTqtr-48" value="Data" style="ellipse;whiteSpace=wrap;html=1;fontSize=10;" vertex="1" parent="0JsL5X7lTT_Fuk3FTqtr-1">
          <mxGeometry x="640.83" y="430" width="30.34" height="20" as="geometry" />
        </mxCell>
        <mxCell id="0JsL5X7lTT_Fuk3FTqtr-49" value="Data" style="ellipse;whiteSpace=wrap;html=1;fontSize=10;" vertex="1" parent="0JsL5X7lTT_Fuk3FTqtr-1">
          <mxGeometry x="437.6600000000001" y="173.33999999999997" width="30.34" height="20" as="geometry" />
        </mxCell>
        <mxCell id="0JsL5X7lTT_Fuk3FTqtr-50" value="Data" style="ellipse;whiteSpace=wrap;html=1;fontSize=10;" vertex="1" parent="0JsL5X7lTT_Fuk3FTqtr-1">
          <mxGeometry x="779.32" y="520" width="30.34" height="20" as="geometry" />
        </mxCell>
        <mxCell id="0JsL5X7lTT_Fuk3FTqtr-51" value="Data" style="ellipse;whiteSpace=wrap;html=1;fontSize=10;" vertex="1" parent="0JsL5X7lTT_Fuk3FTqtr-1">
          <mxGeometry x="316.0000000000001" y="270" width="30.34" height="20" as="geometry" />
        </mxCell>
        <mxCell id="0JsL5X7lTT_Fuk3FTqtr-52" value="Call Center / Branches" style="ellipse;whiteSpace=wrap;html=1;fontSize=10;" vertex="1" parent="0JsL5X7lTT_Fuk3FTqtr-1">
          <mxGeometry x="419.83" y="340" width="66" height="30" as="geometry" />
        </mxCell>
        <mxCell id="0JsL5X7lTT_Fuk3FTqtr-54" value="Data" style="ellipse;whiteSpace=wrap;html=1;fontSize=10;" vertex="1" parent="0JsL5X7lTT_Fuk3FTqtr-1">
          <mxGeometry x="228.6600000000001" y="340" width="30.34" height="20" as="geometry" />
        </mxCell>
        <mxCell id="0JsL5X7lTT_Fuk3FTqtr-55" value="Data" style="ellipse;whiteSpace=wrap;html=1;fontSize=10;" vertex="1" parent="0JsL5X7lTT_Fuk3FTqtr-1">
          <mxGeometry x="214.0000000000001" y="430" width="30.34" height="20" as="geometry" />
        </mxCell>
        <mxCell id="0JsL5X7lTT_Fuk3FTqtr-56" value="Data" style="ellipse;whiteSpace=wrap;html=1;fontSize=10;" vertex="1" parent="0JsL5X7lTT_Fuk3FTqtr-1">
          <mxGeometry x="348.0000000000001" y="550" width="30.34" height="20" as="geometry" />
        </mxCell>
        <mxCell id="0JsL5X7lTT_Fuk3FTqtr-57" value="Call Center / Branches" style="ellipse;whiteSpace=wrap;html=1;fontSize=10;" vertex="1" parent="0JsL5X7lTT_Fuk3FTqtr-1">
          <mxGeometry x="72" y="540" width="66" height="30" as="geometry" />
        </mxCell>
        <mxCell id="0JsL5X7lTT_Fuk3FTqtr-58" value="Data" style="ellipse;whiteSpace=wrap;html=1;fontSize=10;" vertex="1" parent="0JsL5X7lTT_Fuk3FTqtr-1">
          <mxGeometry x="920.0000000000001" y="590" width="30.34" height="20" as="geometry" />
        </mxCell>
        <mxCell id="0JsL5X7lTT_Fuk3FTqtr-61" value="Branch" style="ellipse;whiteSpace=wrap;html=1;fontSize=10;" vertex="1" parent="0JsL5X7lTT_Fuk3FTqtr-1">
          <mxGeometry x="500" y="510" width="30.34" height="20" as="geometry" />
        </mxCell>
        <mxCell id="0JsL5X7lTT_Fuk3FTqtr-62" value="Branch" style="ellipse;whiteSpace=wrap;html=1;fontSize=10;" vertex="1" parent="0JsL5X7lTT_Fuk3FTqtr-1">
          <mxGeometry x="500" y="610" width="30.34" height="20" as="geometry" />
        </mxCell>
        <mxCell id="0JsL5X7lTT_Fuk3FTqtr-63" value="Data" style="ellipse;whiteSpace=wrap;html=1;fontSize=10;" vertex="1" parent="0JsL5X7lTT_Fuk3FTqtr-1">
          <mxGeometry x="500" y="710" width="30.34" height="20" as="geometry" />
        </mxCell>
        <mxCell id="0JsL5X7lTT_Fuk3FTqtr-64" value="Branch" style="ellipse;whiteSpace=wrap;html=1;fontSize=10;" vertex="1" parent="0JsL5X7lTT_Fuk3FTqtr-1">
          <mxGeometry x="690" y="580" width="30.34" height="20" as="geometry" />
        </mxCell>
      </root>
    </mxGraphModel>
  </diagram>
</mxfile>
